<svg width="28" height="28" viewBox="0 0 28 28" fill="none" xmlns="http://www.w3.org/2000/svg">
<path d="M10.6592 3.99736C10.8727 3.99663 11.0836 4.04374 11.2765 4.13523C11.4693 4.22672 11.6392 4.36025 11.7737 4.52603L18.675 13.099C18.8851 13.3547 19 13.6754 19 14.0063C19 14.3373 18.8851 14.6579 18.675 14.9136L11.5308 23.4866C11.2883 23.7784 10.9398 23.9619 10.562 23.9967C10.1841 24.0315 9.80796 23.9149 9.51617 23.6723C9.22438 23.4298 9.04088 23.0813 9.00605 22.7035C8.97121 22.3257 9.08789 21.9495 9.33042 21.6577L15.7173 13.9992L9.54475 6.34064C9.37002 6.13091 9.25904 5.87552 9.22492 5.60468C9.1908 5.33385 9.23497 5.05891 9.35222 4.8124C9.46946 4.56588 9.65486 4.35812 9.88649 4.21368C10.1181 4.06924 10.3863 3.99417 10.6592 3.99736Z" fill="white"/>
</svg>
