<svg width="28" height="28" viewBox="0 0 28 28" fill="none" xmlns="http://www.w3.org/2000/svg">
<path d="M17.3408 24.0026C17.1273 24.0034 16.9164 23.9563 16.7235 23.8648C16.5307 23.7733 16.3608 23.6397 16.2263 23.474L9.32504 14.901C9.11489 14.6453 9 14.3246 9 13.9937C9 13.6627 9.11489 13.3421 9.32504 13.0864L16.4692 4.51342C16.7117 4.22163 17.0602 4.03813 17.438 4.0033C17.8159 3.96847 18.192 4.08515 18.4838 4.32767C18.7756 4.5702 18.9591 4.91871 18.994 5.29653C19.0288 5.67435 18.9121 6.05053 18.6696 6.34232L12.2827 14.0008L18.4553 21.6594C18.63 21.8691 18.741 22.1245 18.7751 22.3953C18.8092 22.6661 18.765 22.9411 18.6478 23.1876C18.5305 23.4341 18.3451 23.6419 18.1135 23.7863C17.8819 23.9308 17.6137 24.0058 17.3408 24.0026Z" fill="white"/>
</svg>
