<svg width="25" height="24" viewBox="0 0 25 24" fill="none" xmlns="http://www.w3.org/2000/svg">
<path fill-rule="evenodd" clip-rule="evenodd" d="M22.0286 13.2012C22.0286 12.5711 21.9721 11.9654 21.8671 11.3838H13.499V14.8207H18.2808C18.0748 15.9313 17.4488 16.8723 16.5078 17.5023V19.7316H19.3793C21.0593 18.1849 22.0286 15.9071 22.0286 13.2012Z" fill="#4285F4"/>
<path fill-rule="evenodd" clip-rule="evenodd" d="M13.499 21.8841C15.898 21.8841 17.9092 21.0885 19.3793 19.7315L16.5078 17.5022C15.7122 18.0353 14.6945 18.3503 13.499 18.3503C11.1849 18.3503 9.22616 16.7873 8.52748 14.6873H5.55908V16.9893C7.02107 19.8931 10.0258 21.8841 13.499 21.8841Z" fill="#34A853"/>
<path fill-rule="evenodd" clip-rule="evenodd" d="M8.52769 14.6874C8.34999 14.1543 8.24903 13.5848 8.24903 12.9992C8.24903 12.4136 8.34999 11.8442 8.52769 11.3111V9.00903H5.5593C4.95754 10.2085 4.61426 11.5655 4.61426 12.9992C4.61426 14.4329 4.95754 15.7899 5.5593 16.9894L8.52769 14.6874Z" fill="#FBBC05"/>
<path fill-rule="evenodd" clip-rule="evenodd" d="M13.499 7.64806C14.8035 7.64806 15.9747 8.09635 16.8955 8.97677L19.4439 6.4284C17.9052 4.99468 15.8939 4.11426 13.499 4.11426C10.0258 4.11426 7.02107 6.10531 5.55908 9.00908L8.52748 11.3111C9.22616 9.21102 11.1849 7.64806 13.499 7.64806Z" fill="#EA4335"/>
</svg>
