<svg width="20" height="18" viewBox="0 0 20 18" fill="current" xmlns="http://www.w3.org/2000/svg">
<path d="M9.65154 0.61823C9.80454 0.346772 10.1955 0.346772 10.3485 0.61823L13.0841 5.47183C13.1412 5.5731 13.2395 5.64452 13.3535 5.66752L18.8149 6.76947C19.1204 6.8311 19.2412 7.20288 19.0303 7.43228L15.2596 11.5339C15.1809 11.6195 15.1434 11.7351 15.1567 11.8506L15.7964 17.3852C15.8322 17.6947 15.5159 17.9245 15.2326 17.7948L10.1665 15.4762C10.0608 15.4278 9.93924 15.4278 9.83354 15.4762L4.76744 17.7948C4.4841 17.9245 4.16785 17.6947 4.20362 17.3852L4.84328 11.8506C4.85662 11.7351 4.81907 11.6195 4.7404 11.5339L0.969727 7.43228C0.758836 7.20288 0.879634 6.8311 1.18509 6.76947L6.6465 5.66752C6.76046 5.64452 6.85877 5.5731 6.91585 5.47183L9.65154 0.61823Z" fill="current"/>
</svg>
