<svg width="24" height="24" viewBox="0 0 24 24" fill="none" xmlns="http://www.w3.org/2000/svg">
<path d="M11.9996 7.03319L11.8405 6.874C11.0725 6.10604 10.0309 5.6746 8.94483 5.6746C7.85876 5.6746 6.81718 6.10604 6.04921 6.874C5.28124 7.64197 4.8498 8.68356 4.8498 9.76963C4.8498 10.8557 5.28124 11.8973 6.04921 12.6652L6.70337 13.3194L11.5047 18.1207C11.6359 18.252 11.814 18.3257 11.9996 18.3257C12.1853 18.3257 12.3633 18.252 12.4946 18.1207L17.2959 13.3194L17.95 12.6654C17.95 12.6653 17.95 12.6653 17.9501 12.6652C18.3304 12.2851 18.6321 11.8337 18.838 11.3369C19.0438 10.84 19.1498 10.3075 19.1498 9.76963C19.1498 9.2318 19.0438 8.69925 18.838 8.20239C18.6321 7.70553 18.3303 7.2541 17.95 6.87389C17.5698 6.49361 17.1184 6.19194 16.6217 5.98611C16.1248 5.78023 15.5923 5.67427 15.0544 5.67427C14.5166 5.67427 13.9841 5.78023 13.4872 5.98611C12.9904 6.19196 12.539 6.49367 12.1588 6.874C12.1588 6.87404 12.1587 6.87408 12.1587 6.87412L11.9996 7.03319Z" stroke="current" stroke-width="1.4" stroke-linecap="round" stroke-linejoin="round"/>
</svg>
