<svg width="42" height="58" viewBox="0 0 42 58" fill="none" xmlns="http://www.w3.org/2000/svg">
<circle cx="21" cy="29" r="21" fill="#161616"/>
<path d="M16.6622 30.1375L16.6221 30.2832L16.6253 30.3053L16.6622 30.1375Z" fill="#686B72"/>
<path d="M15.008 20.7826H10.9565L14.8622 36.5681L14.8769 36.6303H14.881L16.6221 30.2834L15.008 20.7826Z" fill="#686B72"/>
<path d="M24.5651 30.3399L22.4284 20.7826H18.6727L16.6621 30.1376L16.6728 30.0983L16.6621 30.1376L16.6253 30.3055L16.622 30.2834L14.8809 36.6303H18.5916L20.5759 27.4915L22.6135 36.5665L22.6282 36.6303H26.3267L26.3455 36.5517L24.5708 30.3079L24.5651 30.3399Z" fill="#686B72"/>
<path d="M30.2217 20.7826H26.1941L25.3096 25.9756L27.2595 32.8344L30.2217 20.7826Z" fill="#686B72"/>
</svg>
