<svg width="119" height="144" viewBox="0 0 119 144" fill="none" xmlns="http://www.w3.org/2000/svg">
<g filter="url(#filter0_d_1055_12687)">
<rect x="8" y="6" width="103" height="128" rx="8" fill="#161616"/>
<path d="M52.1608 73.2996L52.0823 73.5847L52.0887 73.628L52.1608 73.2996Z" fill="#1B1E25"/>
<path d="M48.925 55H41L48.6399 85.8783L48.6687 86H48.6767L52.0825 73.5846L48.925 55Z" fill="#1B1E25"/>
<path d="M67.6202 73.6952L63.4406 55H56.0939L52.1611 73.2995L52.1819 73.2226L52.1611 73.2995L52.089 73.6279L52.0826 73.5846L48.6768 86H55.9353L59.817 68.1235L63.8027 85.875L63.8315 86H71.0661L71.1029 85.8462L67.6314 73.6327L67.6202 73.6952Z" fill="#1B1E25"/>
<path d="M78.6848 55H70.8062L69.076 65.1582L72.8904 78.5748L78.6848 55Z" fill="#1B1E25"/>
</g>
<defs>
<filter id="filter0_d_1055_12687" x="0" y="0" width="119" height="144" filterUnits="userSpaceOnUse" color-interpolation-filters="sRGB">
<feFlood flood-opacity="0" result="BackgroundImageFix"/>
<feColorMatrix in="SourceAlpha" type="matrix" values="0 0 0 0 0 0 0 0 0 0 0 0 0 0 0 0 0 0 127 0" result="hardAlpha"/>
<feOffset dy="2"/>
<feGaussianBlur stdDeviation="4"/>
<feComposite in2="hardAlpha" operator="out"/>
<feColorMatrix type="matrix" values="0 0 0 0 0 0 0 0 0 0 0 0 0 0 0 0 0 0 0.48 0"/>
<feBlend mode="normal" in2="BackgroundImageFix" result="effect1_dropShadow_1055_12687"/>
<feBlend mode="normal" in="SourceGraphic" in2="effect1_dropShadow_1055_12687" result="shape"/>
</filter>
</defs>
</svg>
